<?xml version="1.0" encoding="UTF-8" standalone="no"?>
<svg
   width="6.66667in"
   height="6.66667in"
   viewBox="0 0 2000 2000"
   version="1.1"
   id="svg3"
   sodipodi:docname="logo.svg"
   inkscape:version="1.2.2 (b0a8486541, 2022-12-01)"
   xmlns:inkscape="http://www.inkscape.org/namespaces/inkscape"
   xmlns:sodipodi="http://sodipodi.sourceforge.net/DTD/sodipodi-0.dtd"
   xmlns="http://www.w3.org/2000/svg"
   xmlns:svg="http://www.w3.org/2000/svg">
  <defs
     id="defs7" />
  <sodipodi:namedview
     id="namedview5"
     pagecolor="#ffffff"
     bordercolor="#666666"
     borderopacity="1.0"
     inkscape:showpageshadow="2"
     inkscape:pageopacity="0.0"
     inkscape:pagecheckerboard="0"
     inkscape:deskcolor="#d1d1d1"
     inkscape:document-units="in"
     showgrid="false"
     inkscape:zoom="1.6046867"
     inkscape:cx="319.68857"
     inkscape:cy="319.68857"
     inkscape:window-width="3836"
     inkscape:window-height="2068"
     inkscape:window-x="0"
     inkscape:window-y="90"
     inkscape:window-maximized="1"
     inkscape:current-layer="svg3" />
  <path
     id="Selection"
     fill="none"
     stroke="black"
     stroke-width="1"
     d="M 981.00,160.00            C 981.00,160.00 1053.00,160.00 1053.00,160.00              1053.00,160.00 1053.00,441.00 1053.00,441.00              1053.00,441.00 981.00,441.00 981.00,441.00              981.00,441.00 981.00,160.00 981.00,160.00 Z            M 794.00,636.00            C 794.00,636.00 839.00,607.42 839.00,607.42              842.07,605.50 853.00,597.63 855.90,598.01              859.49,598.49 865.60,610.67 867.60,614.00              867.60,614.00 897.20,663.00 897.20,663.00              897.20,663.00 970.80,785.00 970.80,785.00              970.80,785.00 998.60,831.00 998.60,831.00              998.60,831.00 1018.00,863.00 1018.00,863.00              1018.00,863.00 1051.80,806.00 1051.80,806.00              1051.80,806.00 1135.40,667.00 1135.40,667.00              1135.40,667.00 1177.00,597.00 1177.00,597.00              1177.00,597.00 1198.00,609.67 1198.00,609.67              1198.00,609.67 1241.00,639.00 1241.00,639.00              1241.00,639.00 1223.42,668.00 1223.42,668.00              1223.42,668.00 1190.42,721.00 1190.42,721.00              1190.42,721.00 1098.95,868.00 1098.95,868.00              1098.95,868.00 1065.95,921.00 1065.95,921.00              1063.52,924.87 1057.77,935.83 1053.90,937.40              1052.13,938.12 1048.95,938.00 1047.00,938.00              1047.00,938.00 987.00,938.00 987.00,938.00              985.19,938.00 981.93,938.14 980.33,937.43              977.28,936.08 970.91,924.39 968.81,921.00              968.81,921.00 937.32,870.00 937.32,870.00              937.32,870.00 840.95,714.00 840.95,714.00              840.95,714.00 811.32,666.00 811.32,666.00              807.11,659.33 795.89,642.48 794.00,636.00 Z            M 794.00,1365.00            C 796.23,1358.97 806.36,1343.28 810.32,1337.00              810.32,1337.00 838.80,1291.00 838.80,1291.00              838.80,1291.00 900.58,1191.00 900.58,1191.00              900.58,1191.00 936.32,1133.00 936.32,1133.00              936.32,1133.00 969.05,1080.00 969.05,1080.00              971.27,1076.46 977.12,1065.77 980.18,1064.02              981.97,1063.00 984.01,1063.04 986.00,1063.00              986.00,1063.00 1047.00,1063.00 1047.00,1063.00              1048.91,1063.00 1052.10,1062.88 1053.82,1063.60              1057.37,1065.09 1063.36,1076.31 1065.68,1080.00              1065.68,1080.00 1098.05,1132.00 1098.05,1132.00              1098.05,1132.00 1198.20,1293.00 1198.20,1293.00              1198.20,1293.00 1227.42,1340.00 1227.42,1340.00              1231.19,1346.08 1238.66,1356.89 1241.00,1363.00              1241.00,1363.00 1178.00,1405.00 1178.00,1405.00              1178.00,1405.00 1134.81,1333.00 1134.81,1333.00              1134.81,1333.00 1054.40,1200.00 1054.40,1200.00              1054.40,1200.00 1018.00,1139.00 1018.00,1139.00              1018.00,1139.00 913.60,1313.00 913.60,1313.00              913.60,1313.00 879.00,1371.00 879.00,1371.00              879.00,1371.00 859.00,1405.00 859.00,1405.00              859.00,1405.00 834.00,1390.05 834.00,1390.05              834.00,1390.05 794.00,1365.00 794.00,1365.00 Z            M 632.00,1662.00            C 632.00,1662.00 1341.00,1662.00 1341.00,1662.00              1341.00,1662.00 1341.00,1742.00 1341.00,1742.00              1341.00,1742.00 632.00,1742.00 632.00,1742.00              632.00,1742.00 632.00,1662.00 632.00,1662.00 Z"
     style="fill:#ffffff;stroke:#ffffff" />
</svg>
