<?xml version="1.0" encoding="UTF-8" standalone="no"?>
<!-- Created with Inkscape (http://www.inkscape.org/) -->

<svg
   width="800mm"
   height="153.55388mm"
   viewBox="0 0 800 153.55388"
   version="1.1"
   id="svg7292"
   sodipodi:docname="tigerbeetle.svg"
   inkscape:version="1.4 (e7c3feb100, 2024-10-09)"
   xmlns:inkscape="http://www.inkscape.org/namespaces/inkscape"
   xmlns:sodipodi="http://sodipodi.sourceforge.net/DTD/sodipodi-0.dtd"
   xmlns="http://www.w3.org/2000/svg"
   xmlns:svg="http://www.w3.org/2000/svg">
  <sodipodi:namedview
     id="namedview45"
     pagecolor="#505050"
     bordercolor="#ffffff"
     borderopacity="1"
     inkscape:pageshadow="0"
     inkscape:pageopacity="0"
     inkscape:pagecheckerboard="1"
     inkscape:document-units="mm"
     showgrid="false"
     fit-margin-top="0"
     fit-margin-left="0"
     fit-margin-right="0"
     fit-margin-bottom="0"
     inkscape:zoom="0.37717932"
     inkscape:cx="601.83575"
     inkscape:cy="-731.74743"
     inkscape:window-width="2156"
     inkscape:window-height="3836"
     inkscape:window-x="3840"
     inkscape:window-y="0"
     inkscape:window-maximized="1"
     inkscape:current-layer="svg7292"
     inkscape:showpageshadow="2"
     inkscape:deskcolor="#d1d1d1" />
  <defs
     id="defs7289">
    <clipPath
       id="clip11">
      <rect
         x="0"
         y="0"
         width="373"
         height="43"
         id="rect1759" />
    </clipPath>
    <clipPath
       id="clip12">
      <path
         d="M 0,13.5 H 18 V 19 H 0 Z m 0,0"
         id="path1756" />
    </clipPath>
    <mask
       id="mask5">
      <g
         id="g1753"
         style="filter:url(#alpha)">
        <rect
           x="0"
           y="0"
           width="612"
           height="792"
           style="fill:#000000;fill-opacity:0.898;stroke:none"
           id="rect1751" />
      </g>
    </mask>
    <filter
       id="alpha"
       filterUnits="objectBoundingBox"
       x="0"
       y="0"
       width="1"
       height="1">
      <feColorMatrix
         type="matrix"
         in="SourceGraphic"
         values="0 0 0 0 1 0 0 0 0 1 0 0 0 0 1 0 0 0 1 0"
         id="feColorMatrix1702" />
    </filter>
    <clipPath
       id="clipPath7313">
      <rect
         x="0"
         y="0"
         width="373"
         height="43"
         id="rect7311" />
    </clipPath>
    <clipPath
       id="clipPath7317">
      <path
         d="M 0,13.5 H 18 V 19 H 0 Z m 0,0"
         id="path7315" />
    </clipPath>
  </defs>
  <g
     id="layer1"
     transform="matrix(15.916745,0,0,15.916745,-1125.3511,-3026.5234)"
     style="fill:#ffffff;fill-opacity:1">
    <g
       id="use2768"
       clip-path="url(#clip11)"
       style="fill:#ffffff;fill-opacity:1;stroke:none;stroke-width:0.780934;stroke-miterlimit:4;stroke-dasharray:none;stroke-opacity:1"
       transform="matrix(0.64025899,0,0,0.64025899,70.702336,181.26354)">
      <g
         clip-path="url(#clip12)"
         id="g7477"
         style="clip-rule:nonzero;fill:#ffffff;fill-opacity:1">
        <path
           style="fill:#ffffff;fill-opacity:1;fill-rule:nonzero;stroke:none"
           d="M 13.542969,18.117188 H 0 C 0,15.796875 2.058594,13.875 4.457031,13.875 H 18 c 0,2.320312 -2.058594,4.242188 -4.457031,4.242188 z m 0,0"
           id="path7475" />
      </g>
      <path
         style="fill:#ffffff;fill-opacity:1;fill-rule:nonzero;stroke:none"
         d="M 5.257812,28.863281 6.175781,22.566406 C 6.566406,19.894531 8.867188,17.90625 11.570312,17.90625 l -1.238281,8.179688 C 9.910156,28.007812 7.695312,29.28125 5.257812,28.863281 Z m 0,0"
         id="path7479" />
      <g
         style="fill:#ffffff;fill-opacity:1"
         id="g7503">
        <g
           id="use7481"
           transform="translate(17.999996,24.749996)"
           style="fill:#ffffff;fill-opacity:1">
          <path
             style="fill:#ffffff;stroke:none;fill-opacity:1"
             d="M 0.84375,-7.109375 1.109375,-8.53125 H 7.84375 l -0.25,1.421875 H 5.0625 L 3.84375,0 H 2.125 l 1.234375,-7.109375 z m 0,0"
             id="path7547" />
        </g>
        <g
           id="use7483"
           transform="translate(25.201168,24.749996)"
           style="fill:#ffffff;fill-opacity:1">
          <path
             style="fill:#ffffff;stroke:none;fill-opacity:1"
             d="m 1.390625,-7.953125 c 0,-0.257813 0.082031,-0.472656 0.25,-0.640625 0.175781,-0.175781 0.394531,-0.265625 0.65625,-0.265625 0.257813,-0.00781 0.476563,0.0625 0.65625,0.21875 0.1875,0.15625 0.28125,0.367187 0.28125,0.625 0.00781,0.273437 -0.074219,0.492187 -0.25,0.65625 -0.179687,0.167969 -0.398437,0.25 -0.65625,0.25 -0.25,0.011719 -0.46875,-0.0625 -0.65625,-0.21875 -0.179687,-0.15625 -0.273437,-0.363281 -0.28125,-0.625 z M 2.875,-6.34375 1.765625,0 h -1.65625 l 1.09375,-6.34375 z m 0,0"
             id="path7531" />
        </g>
        <g
           id="use7485"
           transform="translate(28.289059,24.749996)"
           style="fill:#ffffff;fill-opacity:1">
          <path
             style="fill:#ffffff;stroke:none;fill-opacity:1"
             d="M 5.46875,-0.21875 C 5.351562,0.65625 4.988281,1.332031 4.375,1.8125 3.757812,2.289062 3.015625,2.519531 2.140625,2.5 1.710938,2.488281 1.300781,2.394531 0.90625,2.21875 0.507812,2.050781 0.175781,1.804688 -0.09375,1.484375 L 0.71875,0.46875 C 1.082031,0.9375 1.546875,1.175781 2.109375,1.1875 2.554688,1.195312 2.925781,1.078125 3.21875,0.828125 3.507812,0.585938 3.710938,0.265625 3.828125,-0.140625 L 3.9375,-0.5625 C 3.476562,-0.101562 2.957031,0.125 2.375,0.125 1.8125,0.101562 1.367188,-0.0703125 1.046875,-0.40625 0.734375,-0.738281 0.519531,-1.148438 0.40625,-1.640625 0.300781,-2.128906 0.273438,-2.609375 0.328125,-3.078125 v -0.125 C 0.398438,-3.734375 0.550781,-4.25 0.78125,-4.75 1.007812,-5.257812 1.328125,-5.675781 1.734375,-6 c 0.414063,-0.320312 0.925781,-0.472656 1.53125,-0.453125 0.664063,0 1.171875,0.242187 1.515625,0.71875 L 5,-6.34375 h 1.515625 z m -3.5,-2.859375 c -0.023438,0.230469 -0.023438,0.484375 0,0.765625 0.019531,0.28125 0.09375,0.527344 0.21875,0.734375 0.132812,0.199219 0.359375,0.304687 0.671875,0.3125 C 3.316406,-1.242188 3.71875,-1.4375 4.0625,-1.84375 L 4.546875,-4.515625 C 4.390625,-4.890625 4.082031,-5.082031 3.625,-5.09375 c -0.5,-0.019531 -0.882812,0.171875 -1.140625,0.578125 -0.261719,0.398437 -0.433594,0.875 -0.515625,1.4375 z m 0,0"
             id="path7535" />
        </g>
        <g
           id="use7487"
           transform="translate(34.939449,24.749996)"
           style="fill:#ffffff;fill-opacity:1">
          <path
             style="fill:#ffffff;stroke:none;fill-opacity:1"
             d="m 5.5,-1.015625 c -0.273438,0.398437 -0.640625,0.6875 -1.109375,0.875 C 3.929688,0.0351562 3.472656,0.125 3.015625,0.125 2.140625,0.101562 1.457031,-0.195312 0.96875,-0.78125 0.476562,-1.375 0.269531,-2.09375 0.34375,-2.9375 l 0.015625,-0.234375 c 0.0625,-0.582031 0.226563,-1.125 0.5,-1.625 0.28125,-0.507813 0.65625,-0.914063 1.125,-1.21875 C 2.453125,-6.328125 3,-6.472656 3.625,-6.453125 4.507812,-6.441406 5.140625,-6.125 5.515625,-5.5 c 0.382813,0.625 0.53125,1.34375 0.4375,2.15625 L 5.859375,-2.625 H 1.96875 c -0.011719,0.386719 0.082031,0.710938 0.28125,0.96875 0.195312,0.261719 0.5,0.398438 0.90625,0.40625 0.582031,0.011719 1.109375,-0.222656 1.578125,-0.703125 z M 3.546875,-5.09375 c -0.40625,-0.00781 -0.71875,0.125 -0.9375,0.40625 -0.21875,0.28125 -0.390625,0.585938 -0.515625,0.90625 H 4.375 L 4.40625,-3.921875 C 4.457031,-4.242188 4.410156,-4.519531 4.265625,-4.75 4.128906,-4.976562 3.890625,-5.09375 3.546875,-5.09375 Z m 0,0"
             id="path7515" />
        </g>
        <g
           id="use7489"
           transform="translate(41.232418,24.749996)"
           style="fill:#ffffff;fill-opacity:1">
          <path
             style="fill:#ffffff;stroke:none;fill-opacity:1"
             d="m 3.796875,-4.8125 c -0.59375,-0.00781 -1.054687,0.210938 -1.375,0.65625 L 1.671875,0 H 0.015625 L 1.125,-6.34375 H 2.671875 L 2.53125,-5.578125 C 2.925781,-6.171875 3.414062,-6.46875 4,-6.46875 c 0.164062,0 0.359375,0.027344 0.578125,0.078125 l -0.21875,1.625 C 4.066406,-4.796875 3.878906,-4.8125 3.796875,-4.8125 Z m 0,0"
             id="path7511" />
        </g>
        <g
           id="use7491"
           transform="translate(45.486324,24.749996)"
           style="fill:#ffffff;fill-opacity:1">
          <path
             style="fill:#ffffff;stroke:none;fill-opacity:1"
             d="M 6.703125,-2.5625 C 6.640625,-1.65625 6.285156,-1 5.640625,-0.59375 4.992188,-0.195312 4.253906,0 3.421875,0 H 0.125 L 1.609375,-8.53125 H 4.25 c 1.238281,0.011719 2.101562,0.328125 2.59375,0.953125 0.257812,0.324219 0.367188,0.765625 0.328125,1.328125 -0.03125,0.480469 -0.183594,0.871094 -0.453125,1.171875 -0.273438,0.304687 -0.621094,0.542969 -1.046875,0.71875 0.382813,0.136719 0.660156,0.375 0.828125,0.71875 0.164062,0.34375 0.234375,0.703125 0.203125,1.078125 z m -3.625,-4.546875 -0.375,2.140625 1.09375,0.015625 c 0.375,0 0.722656,-0.078125 1.046875,-0.234375 0.320312,-0.164062 0.515625,-0.457031 0.578125,-0.875 0.0625,-0.382812 -0.00781,-0.648438 -0.203125,-0.796875 -0.199219,-0.144531 -0.476562,-0.226563 -0.828125,-0.25 z m 1.9375,4.53125 C 5.128906,-3.304688 4.828125,-3.6875 4.109375,-3.71875 H 2.5 l -0.40625,2.296875 1.359375,0.015625 c 0.375,-0.00781 0.710937,-0.109375 1.015625,-0.296875 0.300781,-0.1875 0.484375,-0.476563 0.546875,-0.875 z m 0,0"
             id="path7539" />
        </g>
        <g
           id="use7493"
           transform="translate(52.916012,24.749996)"
           style="fill:#ffffff;fill-opacity:1">
          <path
             style="fill:#ffffff;stroke:none;fill-opacity:1"
             d="m 5.5,-1.015625 c -0.273438,0.398437 -0.640625,0.6875 -1.109375,0.875 C 3.929688,0.0351562 3.472656,0.125 3.015625,0.125 2.140625,0.101562 1.457031,-0.195312 0.96875,-0.78125 0.476562,-1.375 0.269531,-2.09375 0.34375,-2.9375 l 0.015625,-0.234375 c 0.0625,-0.582031 0.226563,-1.125 0.5,-1.625 0.28125,-0.507813 0.65625,-0.914063 1.125,-1.21875 C 2.453125,-6.328125 3,-6.472656 3.625,-6.453125 4.507812,-6.441406 5.140625,-6.125 5.515625,-5.5 c 0.382813,0.625 0.53125,1.34375 0.4375,2.15625 L 5.859375,-2.625 H 1.96875 c -0.011719,0.386719 0.082031,0.710938 0.28125,0.96875 0.195312,0.261719 0.5,0.398438 0.90625,0.40625 0.582031,0.011719 1.109375,-0.222656 1.578125,-0.703125 z M 3.546875,-5.09375 c -0.40625,-0.00781 -0.71875,0.125 -0.9375,0.40625 -0.21875,0.28125 -0.390625,0.585938 -0.515625,0.90625 H 4.375 L 4.40625,-3.921875 C 4.457031,-4.242188 4.410156,-4.519531 4.265625,-4.75 4.128906,-4.976562 3.890625,-5.09375 3.546875,-5.09375 Z m 0,0"
             id="path7519" />
        </g>
        <g
           id="use7495"
           transform="translate(59.208981,24.749996)"
           style="fill:#ffffff;fill-opacity:1">
          <path
             style="fill:#ffffff;stroke:none;fill-opacity:1"
             d="m 5.5,-1.015625 c -0.273438,0.398437 -0.640625,0.6875 -1.109375,0.875 C 3.929688,0.0351562 3.472656,0.125 3.015625,0.125 2.140625,0.101562 1.457031,-0.195312 0.96875,-0.78125 0.476562,-1.375 0.269531,-2.09375 0.34375,-2.9375 l 0.015625,-0.234375 c 0.0625,-0.582031 0.226563,-1.125 0.5,-1.625 0.28125,-0.507813 0.65625,-0.914063 1.125,-1.21875 C 2.453125,-6.328125 3,-6.472656 3.625,-6.453125 4.507812,-6.441406 5.140625,-6.125 5.515625,-5.5 c 0.382813,0.625 0.53125,1.34375 0.4375,2.15625 L 5.859375,-2.625 H 1.96875 c -0.011719,0.386719 0.082031,0.710938 0.28125,0.96875 0.195312,0.261719 0.5,0.398438 0.90625,0.40625 0.582031,0.011719 1.109375,-0.222656 1.578125,-0.703125 z M 3.546875,-5.09375 c -0.40625,-0.00781 -0.71875,0.125 -0.9375,0.40625 -0.21875,0.28125 -0.390625,0.585938 -0.515625,0.90625 H 4.375 L 4.40625,-3.921875 C 4.457031,-4.242188 4.410156,-4.519531 4.265625,-4.75 4.128906,-4.976562 3.890625,-5.09375 3.546875,-5.09375 Z m 0,0"
             id="path7523" />
        </g>
        <g
           id="use7497"
           transform="translate(65.501945,24.749996)"
           style="fill:#ffffff;fill-opacity:1">
          <path
             style="fill:#ffffff;stroke:none;fill-opacity:1"
             d="M 3.171875,-0.03125 C 2.878906,0.0703125 2.566406,0.117188 2.234375,0.109375 1.671875,0.0976562 1.257812,-0.078125 1,-0.421875 0.738281,-0.765625 0.632812,-1.210938 0.6875,-1.765625 l 0.546875,-3.34375 H 0.328125 L 0.546875,-6.34375 H 1.4375 l 0.28125,-1.5625 H 3.375 l -0.28125,1.5625 h 1.0625 L 3.9375,-5.109375 H 2.890625 l -0.546875,3.1875 c -0.023438,0.199219 -0.00781,0.355469 0.046875,0.46875 0.050781,0.105469 0.1875,0.15625 0.40625,0.15625 0.125,0.011719 0.285156,0 0.484375,-0.03125 z m 0,0"
             id="path7507" />
        </g>
        <g
           id="use7499"
           transform="translate(69.433586,24.749996)"
           style="fill:#ffffff;fill-opacity:1">
          <path
             style="fill:#ffffff;stroke:none;fill-opacity:1"
             d="m 3.328125,-9 -1.5625,9 h -1.65625 l 1.5625,-9 z m 0,0"
             id="path7543" />
        </g>
        <g
           id="use7501"
           transform="translate(72.521477,24.749996)"
           style="fill:#ffffff;fill-opacity:1">
          <path
             style="fill:#ffffff;stroke:none;fill-opacity:1"
             d="m 5.5,-1.015625 c -0.273438,0.398437 -0.640625,0.6875 -1.109375,0.875 C 3.929688,0.0351562 3.472656,0.125 3.015625,0.125 2.140625,0.101562 1.457031,-0.195312 0.96875,-0.78125 0.476562,-1.375 0.269531,-2.09375 0.34375,-2.9375 l 0.015625,-0.234375 c 0.0625,-0.582031 0.226563,-1.125 0.5,-1.625 0.28125,-0.507813 0.65625,-0.914063 1.125,-1.21875 C 2.453125,-6.328125 3,-6.472656 3.625,-6.453125 4.507812,-6.441406 5.140625,-6.125 5.515625,-5.5 c 0.382813,0.625 0.53125,1.34375 0.4375,2.15625 L 5.859375,-2.625 H 1.96875 c -0.011719,0.386719 0.082031,0.710938 0.28125,0.96875 0.195312,0.261719 0.5,0.398438 0.90625,0.40625 0.582031,0.011719 1.109375,-0.222656 1.578125,-0.703125 z M 3.546875,-5.09375 c -0.40625,-0.00781 -0.71875,0.125 -0.9375,0.40625 -0.21875,0.28125 -0.390625,0.585938 -0.515625,0.90625 H 4.375 L 4.40625,-3.921875 C 4.457031,-4.242188 4.410156,-4.519531 4.265625,-4.75 4.128906,-4.976562 3.890625,-5.09375 3.546875,-5.09375 Z m 0,0"
             id="path7527" />
        </g>
      </g>
    </g>
  </g>
</svg>
